<?xml version="1.0" standalone="no"?>
<!DOCTYPE svg PUBLIC "-//W3C//DTD SVG 20010904//EN"
 "http://www.w3.org/TR/2001/REC-SVG-20010904/DTD/svg10.dtd">
<svg version="1.0" xmlns="http://www.w3.org/2000/svg"
 width="500.000000pt" height="500.000000pt" viewBox="0 0 500.000000 500.000000"
 preserveAspectRatio="xMidYMid meet">

<g transform="translate(0.000000,500.000000) scale(0.100000,-0.100000)"
fill="#000000" stroke="none">
<path d="M0 2500 l0 -2500 2500 0 2500 0 0 2500 0 2500 -2500 0 -2500 0 0
-2500z m958 1646 c147 -85 458 -265 692 -399 l425 -246 2 -88 3 -88 -330 -190
c-289 -166 -328 -192 -313 -203 10 -7 158 -94 331 -194 l313 -181 -3 -86 -3
-85 -130 -77 c-71 -41 -296 -172 -500 -289 -203 -117 -482 -278 -620 -357
-137 -80 -268 -155 -290 -168 l-40 -23 -70 43 c-38 23 -118 70 -178 105 l-107
62 0 70 c0 57 3 69 14 65 8 -3 89 -48 179 -100 l165 -94 353 204 c195 112 422
243 506 291 84 48 152 89 152 92 1 3 -88 55 -196 115 -234 131 -476 268 -555
313 l-58 33 0 -128 0 -128 190 -108 c105 -60 190 -110 190 -112 0 -2 -84 -50
-187 -108 -104 -58 -235 -132 -291 -165 l-104 -59 -131 75 c-73 41 -153 86
-179 101 l-48 26 0 956 0 955 273 161 c149 89 273 162 275 162 1 1 123 -68
270 -153z m3094 -1506 c54 -26 58 -50 58 -369 l0 -291 -70 0 -70 0 0 110 0
110 -55 0 -55 0 0 -110 0 -110 -70 0 -71 0 3 304 3 304 24 26 c14 15 39 31 55
36 43 13 215 6 248 -10z m-1442 -50 l0 -60 -80 0 -80 0 0 -80 0 -80 75 0 75 0
0 -55 0 -55 -75 0 -75 0 0 -80 0 -80 80 0 80 0 0 -60 0 -60 -150 0 -150 0 0
335 0 335 150 0 150 0 0 -60z m394 50 c22 -5 51 -20 65 -35 25 -24 26 -31 26
-129 0 -95 -2 -107 -23 -129 l-22 -24 20 -18 c18 -17 20 -30 20 -172 l0 -153
-70 0 -70 0 0 135 0 135 -45 0 -45 0 0 -135 0 -135 -70 0 -70 0 0 335 0 335
123 0 c67 0 140 -5 161 -10z m354 -132 c2 -124 4 -138 20 -138 14 0 30 32 68
138 l51 137 61 3 c48 2 62 0 62 -11 0 -8 -23 -77 -52 -153 l-51 -139 35 -100
c20 -55 50 -137 67 -182 l30 -83 -73 0 -73 0 -48 130 c-43 116 -50 130 -71
130 -24 0 -24 0 -24 -130 l0 -130 -75 0 -75 0 0 328 c0 181 3 332 7 336 4 4
37 6 73 4 l65 -3 3 -137z m969 130 c6 -7 25 -68 44 -135 19 -68 36 -123 39
-123 3 0 16 39 29 88 13 48 30 108 38 135 l14 47 64 0 c36 0 65 -3 65 -8 0 -4
-31 -102 -70 -217 l-70 -209 0 -118 0 -118 -70 0 -70 0 0 118 0 118 -70 209
c-38 115 -70 213 -70 217 0 13 117 9 127 -4z m-1496 -688 c23 -13 25 -43 3
-61 -31 -26 -70 25 -44 56 15 18 16 18 41 5z m117 -2 c17 -17 15 -43 -4 -59
-31 -26 -70 25 -44 56 15 18 32 19 48 3z m-435 -120 c32 -23 35 -43 6 -59 -17
-9 -28 -7 -54 7 -36 19 -79 14 -89 -13 -9 -23 4 -33 55 -44 71 -15 99 -30 114
-60 43 -83 -12 -161 -113 -161 -59 1 -90 13 -121 45 l-23 25 30 16 c28 14 33
14 70 -6 34 -19 44 -20 66 -10 28 12 34 43 13 60 -7 6 -33 14 -57 18 -31 5
-55 17 -77 40 -101 100 60 227 180 142z m409 20 c136 -41 159 -253 36 -328
-47 -29 -134 -27 -178 3 -52 35 -73 70 -78 132 -8 98 35 171 116 195 39 12 60
12 104 -2z m418 -100 l75 -103 3 103 3 103 37 -3 37 -3 1 -172 1 -173 -36 0
c-34 0 -40 6 -111 106 l-75 107 -3 -107 -3 -106 -39 0 -40 0 0 175 0 175 38 0
c37 0 41 -4 112 -102z m447 7 c26 -52 50 -95 53 -95 3 0 27 43 53 95 l47 95
40 0 40 0 0 -175 0 -175 -40 0 -40 0 -1 98 0 97 -42 -82 c-25 -51 -48 -83 -57
-83 -9 0 -32 32 -57 83 l-42 82 0 -97 -1 -98 -37 0 -38 0 0 175 0 175 38 0
c37 0 37 0 84 -95z m631 63 c-3 -36 8 -33 -135 -37 -19 -1 -23 -7 -23 -36 l0
-35 65 0 65 0 0 -29 c0 -33 -19 -44 -73 -41 -54 3 -57 2 -57 -35 l0 -34 83 -3
82 -3 3 -32 3 -33 -123 0 -124 0 1 168 c1 92 2 170 3 175 1 4 54 7 118 7 l115
0 -3 -32z m402 -3 c0 -29 -14 -55 -75 -135 -41 -54 -75 -102 -75 -105 0 -3 36
-5 80 -5 l80 0 0 -35 0 -35 -130 0 -130 0 0 35 c0 27 16 56 76 137 l76 103
-74 5 -73 5 -3 33 -3 32 125 0 126 0 0 -35z"/>
<path d="M700 3483 l0 -128 286 -165 c158 -91 290 -166 295 -168 8 -3 229 120
229 128 0 3 -17 14 -38 26 -20 11 -195 111 -388 222 -192 110 -358 204 -367
208 -15 6 -17 -6 -17 -123z"/>
<path d="M3865 2547 c-3 -7 -4 -62 -3 -123 l3 -109 50 0 50 0 0 120 0 120 -48
3 c-33 2 -49 -1 -52 -11z"/>
<path d="M2860 2451 l0 -101 39 0 c55 0 62 14 59 112 l-3 83 -47 3 -48 3 0
-100z"/>
<path d="M2808 1763 c-49 -53 -45 -141 9 -183 37 -29 79 -26 114 9 25 26 29
37 29 86 0 49 -4 60 -29 86 -39 39 -87 40 -123 2z"/>
</g>
</svg>
